<svg width="24" height="24" viewBox="0 0 24 24" fill="none" xmlns="http://www.w3.org/2000/svg">
<g clip-path="url(#clip0_5661_1687)">
<path d="M12 13C12.5523 13 13 12.5523 13 12C13 11.4477 12.5523 11 12 11C11.4477 11 11 11.4477 11 12C11 12.5523 11.4477 13 12 13Z" fill="black"/>
<path d="M16 13C16.5523 13 17 12.5523 17 12C17 11.4477 16.5523 11 16 11C15.4477 11 15 11.4477 15 12C15 12.5523 15.4477 13 16 13Z" fill="black"/>
<path d="M8 13C8.55228 13 9 12.5523 9 12C9 11.4477 8.55228 11 8 11C7.44772 11 7 11.4477 7 12C7 12.5523 7.44772 13 8 13Z" fill="black"/>
<path d="M19.07 4.93C17.4292 3.2785 15.2636 2.25121 12.9466 2.02524C10.6296 1.79927 8.30635 2.38878 6.37739 3.69213C4.44842 4.99548 3.03464 6.93101 2.37976 9.16501C1.72489 11.399 1.86998 13.7915 2.79 15.93C2.88589 16.1288 2.91735 16.3525 2.88 16.57L2 20.8C1.9661 20.9622 1.97302 21.1302 2.02015 21.2891C2.06728 21.4479 2.15313 21.5926 2.27 21.71C2.3658 21.8051 2.47987 21.8798 2.60533 21.9297C2.73079 21.9795 2.86505 22.0034 3 22H3.2L7.48 21.14C7.69753 21.1138 7.91812 21.1449 8.12 21.23C10.2585 22.15 12.651 22.2951 14.885 21.6402C17.119 20.9854 19.0545 19.5716 20.3579 17.6426C21.6612 15.7137 22.2507 13.3904 22.0248 11.0734C21.7988 8.75636 20.7715 6.59079 19.12 4.95L19.07 4.93ZM19.9 13.29C19.7045 14.484 19.2407 15.6181 18.5436 16.6069C17.8464 17.5957 16.934 18.4136 15.8751 18.9989C14.8163 19.5841 13.6384 19.9216 12.4302 19.9859C11.222 20.0502 10.015 19.8396 8.9 19.37C8.50454 19.2018 8.07973 19.1134 7.65 19.11C7.46228 19.1113 7.27498 19.128 7.09 19.16L4.27 19.73L4.84 16.91C4.95353 16.2993 4.88034 15.6685 4.63 15.1C4.16039 13.985 3.94981 12.778 4.01409 11.5698C4.07838 10.3616 4.41586 9.18375 5.00114 8.12485C5.58642 7.06595 6.40426 6.1536 7.3931 5.45645C8.38193 4.7593 9.51602 4.29552 10.71 4.1C11.9633 3.89432 13.2475 3.98997 14.4565 4.37906C15.6654 4.76815 16.7644 5.43948 17.6625 6.33754C18.5605 7.23559 19.2319 8.33455 19.6209 9.54352C20.01 10.7525 20.1057 12.0367 19.9 13.29Z" fill="black"/>
</g>
<defs>
<clipPath id="clip0_5661_1687">
<rect width="24" height="24" fill="white"/>
</clipPath>
</defs>
</svg>
