<svg width="24" height="24" viewBox="0 0 24 24" fill="none" xmlns="http://www.w3.org/2000/svg">
<g clip-path="url(#clip0_5661_2114)">
<path d="M12 2C10.0222 2 8.08879 2.58649 6.4443 3.6853C4.79981 4.78412 3.51809 6.3459 2.76121 8.17317C2.00433 10.0004 1.8063 12.0111 2.19215 13.9509C2.578 15.8907 3.53041 17.6725 4.92894 19.0711C6.32746 20.4696 8.10929 21.422 10.0491 21.8079C11.9889 22.1937 13.9996 21.9957 15.8268 21.2388C17.6541 20.4819 19.2159 19.2002 20.3147 17.5557C21.4135 15.9112 22 13.9778 22 12C22 10.6868 21.7413 9.38642 21.2388 8.17317C20.7363 6.95991 19.9997 5.85752 19.0711 4.92893C18.1425 4.00035 17.0401 3.26375 15.8268 2.7612C14.6136 2.25866 13.3132 2 12 2ZM10 15C10 15.2652 9.89465 15.5196 9.70711 15.7071C9.51957 15.8946 9.26522 16 9 16C8.73479 16 8.48043 15.8946 8.2929 15.7071C8.10536 15.5196 8 15.2652 8 15V9C8 8.73478 8.10536 8.48043 8.2929 8.29289C8.48043 8.10536 8.73479 8 9 8C9.26522 8 9.51957 8.10536 9.70711 8.29289C9.89465 8.48043 10 8.73478 10 9V15ZM16 15C16 15.2652 15.8946 15.5196 15.7071 15.7071C15.5196 15.8946 15.2652 16 15 16C14.7348 16 14.4804 15.8946 14.2929 15.7071C14.1054 15.5196 14 15.2652 14 15V9C14 8.73478 14.1054 8.48043 14.2929 8.29289C14.4804 8.10536 14.7348 8 15 8C15.2652 8 15.5196 8.10536 15.7071 8.29289C15.8946 8.48043 16 8.73478 16 9V15Z" fill="black"/>
</g>
<defs>
<clipPath id="clip0_5661_2114">
<rect width="24" height="24" fill="white"/>
</clipPath>
</defs>
</svg>
