<svg width="24" height="24" viewBox="0 0 24 24" fill="none" xmlns="http://www.w3.org/2000/svg">
<g clip-path="url(#clip0_5661_1828)">
<path d="M21 7C21.0095 6.93032 21.0095 6.85968 21 6.79C20.9913 6.73129 20.9745 6.67407 20.95 6.62C20.9236 6.57113 20.8935 6.52433 20.86 6.48C20.822 6.41675 20.7748 6.35947 20.72 6.31L20.6 6.24C20.5423 6.19696 20.4782 6.16321 20.41 6.14H20.21C20.1491 6.08099 20.0779 6.03356 20 6H15C14.7348 6 14.4804 6.10536 14.2929 6.29289C14.1054 6.48043 14 6.73478 14 7C14 7.26522 14.1054 7.51957 14.2929 7.70711C14.4804 7.89464 14.7348 8 15 8H17.83L13.83 12.71L9.51001 10.14C9.30539 10.0183 9.06406 9.97359 8.82943 10.0139C8.5948 10.0542 8.38225 10.177 8.23001 10.36L3.23001 16.36C3.1458 16.461 3.08236 16.5777 3.04332 16.7033C3.00427 16.8289 2.99039 16.961 3.00247 17.092C3.01454 17.2229 3.05234 17.3503 3.11369 17.4666C3.17504 17.5829 3.25875 17.6861 3.36001 17.77C3.53992 17.9191 3.76635 18.0005 4.00001 18C4.14692 18.0002 4.29207 17.9681 4.42516 17.9059C4.55824 17.8437 4.67598 17.7529 4.77001 17.64L9.22001 12.3L13.49 14.86C13.6925 14.9801 13.931 15.0249 14.1633 14.9865C14.3956 14.9481 14.6069 14.8289 14.76 14.65L19 9.7V12C19 12.2652 19.1054 12.5196 19.2929 12.7071C19.4804 12.8946 19.7348 13 20 13C20.2652 13 20.5196 12.8946 20.7071 12.7071C20.8946 12.5196 21 12.2652 21 12V7Z" fill="black"/>
</g>
<defs>
<clipPath id="clip0_5661_1828">
<rect width="24" height="24" fill="white"/>
</clipPath>
</defs>
</svg>
